# xmcd
#
# Track frame offsets: 
#        150
#        16172
#        30344
#        54280
#        66171
#        81040
#        96859
#        108514
#        120152
#        139158
#        150184
#        164100
#
# Disc length: 2379 seconds
#
# Revision: 3
# Processed by: cddbd v1.5.2PL0 Copyright (c) Steve Scherf et al.
# Submitted via: ExactAudioCopy v1.0b4
#
DISCID=8809490c
DTITLE=Smokin' Joe Kubek - The Axe Man
DYEAR=1991
DGENRE=Texas Blues
TTITLE0=Little Wheel
TTITLE1=I Ain't Superstitious
TTITLE2=Right Place Wrong Time
TTITLE3=T. Bone Shuffle
TTITLE4=Buzz Me Baby
TTITLE5=Back Door Man
TTITLE6=C.C. Baby
TTITLE7=Goin to New York
TTITLE8=Same Thang
TTITLE9=4 O'clock Blues
TTITLE10=Hideaway
TTITLE11=Cross Cut Saw
EXTD=
EXTT0=
EXTT1=
EXTT2=
EXTT3=
EXTT4=
EXTT5=
EXTT6=
EXTT7=
EXTT8=
EXTT9=
EXTT10=
EXTT11=
PLAYORDER=
